<svg height="511pt" viewBox="0 -26 511.20552 511" width="511pt" xmlns="http://www.w3.org/2000/svg"><path d="m102.753906 128.171875c-22.070312-44.667969-26.128906-88.277344-8.5625-117.144531l.085938-.085938c45.375-27.367187 126.941406-1.679687 191.824218 63.203125 44.136719 44.140625 70.179688 96.046875 73.621094 139.035157l.503906 65.015624zm0 0" fill="#4fba6f"/><path d="m58.703125 270.472656c-35.574219-24.367187-57.730469-55.175781-58.703125-85.542968v-.085938c14.742188-30.457031 53.40625-50.757812 102.753906-56.671875 30.898438-3.390625 62.140625-1.753906 92.511719 4.855469 66.738281 14.035156 120.496094 47.753906 144.242187 85.890625l-12.039062 59.277343zm0 0" fill="#7ed09e"/><path d="m301.109375 248.3125c-20.59375-34.957031-55.1875-59.410156-95.011719-67.160156l-28.0625-1.765625c-37.945312 1.503906-73.351562 19.449219-96.996094 49.160156l-14.417968 22.503906c-16.554688 32.785157-18.613282 71.007813-5.675782 105.382813l12.121094 24.242187c16.804688 26.320313 42.433594 45.796875 72.296875 54.933594l32.875 5.453125h.105469c1.742188.183594 3.492188.257812 5.242188.222656 35.355468.003906 69.21875-14.253906 93.917968-39.546875zm0 0" fill="#ff5364"/><g fill="#fb7b76"><path d="m139.898438 397.605469 7.453124 52.128906c.609376 4.269531 3.675782 7.78125 7.828126 8.960937 4.152343 1.175782 8.609374-.199218 11.371093-3.515624l38.839844-46.652344"/><path d="m107.140625 375.757812-44.015625 6.292969c-4.652344.667969-9.210938-1.722656-11.3125-5.929687-2.101562-4.207032-1.273438-9.285156 2.054688-12.605469l31.433593-31.4375"/><path d="m85.300781 288.398438-22.773437-45.558594c-1.867188-3.730469-1.441406-8.195313 1.089844-11.507813 2.53125-3.316406 6.726562-4.898437 10.816406-4.082031l32.707031 6.542969"/><path d="m216.363281 211.945312-13.503906-40.511718c-1.394531-4.191406-5.179687-7.128906-9.585937-7.445313-4.402344-.3125-8.566407 2.058594-10.542969 6.007813l-20.984375 41.949218"/><path d="m161.746094 277.472656h-32.765625l10.917969 43.6875"/><path d="m172.667969 343 10.917969 21.835938 21.839843-21.835938"/></g><path d="m511.207031 299.335938c-.109375 23.148437-15.289062 56.496093-25.988281 75.238281v.113281l-16.226562 22.820312c-24.871094 27.890626-60.476563 43.820313-97.84375 43.777344-1.753907.035156-3.503907-.039062-5.246094-.222656h-.105469l-32.910156-5.453125c-29.859375-9.140625-55.488281-28.613281-72.296875-54.933594l-12.171875-24.242187c-5.59375-14.757813-8.441407-30.414063-8.40625-46.195313 0-1.765625 0-3.53125.109375-5.242187zm0 0" fill="#df4d60"/><path d="m327.46875 397.605469 7.441406 52.128906c.609375 4.269531 3.679688 7.78125 7.828125 8.960937 4.152344 1.175782 8.609375-.199218 11.371094-3.515624l38.84375-46.652344" fill="#fb7b76"/><path d="m294.699219 375.757812-44.011719 6.292969c-4.65625.667969-9.214844-1.722656-11.316406-5.929687-2.101563-4.207032-1.273438-9.285156 2.054687-12.605469l31.433594-31.4375" fill="#fb7b76"/><path d="m436.675781 386.730469 40.507813 13.496093c4.195312 1.410157 8.824218.152344 11.726562-3.1875 2.898438-3.339843 3.5-8.101562 1.515625-12.058593l-20.976562-41.9375" fill="#fb7b76"/><path d="m352.308594 335.53125 17.65625 35.308594 35.308594-35.308594" fill="#fb7b76"/><path d="m462.28125 274.195312c2.835938.546876 5.457031 1.09375 8.078125 1.765626 10.257813 2.175781 20.199219 5.621093 29.601563 10.265624 7.203124 4.042969 11.246093 8.414063 11.246093 13.109376 0 4.148437-3.171875 8.078124-9.066406 11.792968-11.449219 6.132813-23.796875 10.40625-36.582031 12.667969-13.175782 2.675781-26.480469 4.644531-39.867188 5.898437-15.71875 1.527344-32.980468 2.402344-50.996094 2.402344-20.507812.019532-41-1.160156-61.367187-3.53125-10.710937-1.308594-20.648437-2.949218-29.496094-4.804687-22.445312-4.792969-38.335937-11.34375-43.632812-18.765625-1.242188-1.636719-1.929688-3.625-1.96875-5.675782.136719-2.625 1.226562-5.113281 3.0625-6.992187 7.671875-6.621094 16.863281-11.234375 26.757812-13.4375h.105469c4.695312-1.417969 9.9375-2.832031 15.394531-3.925781h.113281c1.085938-.222656 2.289063-.441406 3.53125-.769532zm0 0" fill="#fb7b76"/><path d="m467.527344 304.773438c.011718 6.386718-.644532 12.757812-1.96875 19.007812-13.175782 2.675781-26.480469 4.644531-39.867188 5.894531-15.71875 1.527344-32.980468 2.402344-50.996094 2.402344-20.507812.019531-41-1.160156-61.367187-3.53125-10.710937-1.304687-20.648437-2.949219-29.496094-4.800781-3.457031-16.519532-2.320312-33.667969 3.285157-49.585938 14.988281-42.648437 58.523437-68.296875 103.09375-60.742187 44.570312 7.554687 77.214843 46.117187 77.316406 91.320312zm0 0" fill="#e6e7e8"/><path d="m325.828125 291.390625c-2.839844 0-5.5-1.363281-7.15625-3.667969-1.660156-2.300781-2.109375-5.257812-1.214844-7.949218 10.71875-32.148438 33.871094-32.519532 34.851563-32.519532 4.875-.054687 8.875 3.851563 8.929687 8.726563.054688 4.875-3.851562 8.871093-8.726562 8.929687-.8125.050782-11.898438 1.226563-18.316407 20.445313-1.199218 3.601562-4.570312 6.035156-8.367187 6.035156zm0 0" fill="#bdc3c7"/></svg>